<svg xmlns="http://www.w3.org/2000/svg" xmlns:xlink="http://www.w3.org/1999/xlink" width="940" zoomAndPan="magnify" viewBox="0 0 705 705.000001" height="940" preserveAspectRatio="xMidYMid meet" version="1.0"><defs><g/><clipPath id="a4cfe9a8e4"><path d="M 15.125 28 L 689.917969 28 L 689.917969 702.78125 L 15.125 702.78125 Z M 15.125 28 " clip-rule="nonzero"/></clipPath><clipPath id="04a633ad78"><path d="M 50 321 L 663 321 L 663 702.78125 L 50 702.78125 Z M 50 321 " clip-rule="nonzero"/></clipPath></defs><g clip-path="url(#a4cfe9a8e4)"><path fill="#f3a61e" d="M 689.824219 365.542969 C 689.824219 412.996094 680.027344 458.175781 662.28125 499.097656 C 610.554688 618.886719 491.34375 702.71875 352.539062 702.71875 C 213.734375 702.71875 106.164062 626.882812 50.839844 516.367188 C 28.078125 470.996094 15.25 419.761719 15.25 365.542969 C 15.25 179.335938 166.265625 28.417969 352.539062 28.417969 C 538.808594 28.417969 689.824219 179.335938 689.824219 365.542969 Z M 689.824219 365.542969 " fill-opacity="1" fill-rule="nonzero"/></g><g clip-path="url(#04a633ad78)"><path fill="#3d3b3c" d="M 662.28125 499.097656 C 610.554688 618.886719 491.34375 702.71875 352.539062 702.71875 C 213.734375 702.71875 106.164062 626.882812 50.839844 516.367188 C 60.589844 510.925781 71.566406 506.527344 83.824219 503.214844 C 125.519531 492.050781 187.230469 477.574219 187.230469 477.574219 L 206.207031 430.738281 L 203.179688 322.917969 C 203.179688 322.917969 245.25 319.703125 268.300781 322.917969 C 291.347656 326.089844 378.1875 361.144531 378.1875 361.144531 L 426.933594 331.054688 C 426.933594 331.054688 464.652344 326.65625 483.390625 327.648438 C 502.132812 328.691406 526.742188 437.3125 526.742188 437.3125 L 544.726562 468.488281 C 544.726562 468.488281 576.246094 483.960938 618.789062 492.664062 C 635.730469 496.117188 649.835938 496.828125 662.28125 499.097656 Z M 662.28125 499.097656 " fill-opacity="1" fill-rule="nonzero"/></g><path fill="#56352c" d="M 251.433594 249.132812 C 251.433594 249.132812 226.070312 231.597656 220.894531 224.988281 C 215.722656 218.382812 204.566406 203.398438 197.609375 185.578125 C 190.652344 167.761719 170.242188 142.433594 177.734375 126.410156 C 185.226562 110.390625 224.523438 77.574219 224.523438 77.574219 C 224.523438 77.574219 231.621094 33.765625 263.582031 20.296875 C 295.542969 6.8125 397.402344 1.042969 450.816406 28.386719 C 478.265625 42.4375 512.875 47.214844 521.269531 57.230469 C 521.269531 57.230469 506.660156 60.035156 500.113281 71.074219 C 497.808594 74.96875 516.109375 86.152344 518.710938 88.675781 C 533.699219 103.152344 541.175781 101.148438 541.175781 101.148438 C 541.175781 101.148438 523.207031 108.640625 503.238281 105.644531 C 503.238281 105.644531 515.714844 115.625 530.195312 142.574219 C 544.679688 169.527344 532.6875 180.675781 532.6875 180.675781 C 532.6875 180.675781 534.535156 166.039062 506.644531 160.554688 C 506.644531 160.554688 509.105469 175.078125 503.222656 190.800781 C 497.335938 206.523438 475.757812 230.933594 475.757812 230.933594 L 352.523438 309.78125 L 251.417969 249.117188 Z M 251.433594 249.132812 " fill-opacity="1" fill-rule="nonzero"/><path fill="#da8059" d="M 240.851562 236.753906 C 240.851562 236.753906 230.535156 210.242188 214.472656 212.78125 C 198.414062 215.320312 193.304688 244.796875 201.382812 271.980469 C 209.441406 299.167969 227.171875 326.042969 246.152344 311.644531 C 260.585938 300.683594 240.851562 236.753906 240.851562 236.753906 Z M 240.851562 236.753906 " fill-opacity="1" fill-rule="nonzero"/><path fill="#da8059" d="M 464.714844 226.09375 C 464.714844 226.09375 471.671875 200.230469 486.957031 200.957031 C 502.242188 201.679688 510.050781 228.773438 505.273438 255.046875 C 500.507812 281.332031 486.640625 308.300781 467.410156 296.757812 C 452.773438 287.972656 464.714844 226.09375 464.714844 226.09375 Z M 464.714844 226.09375 " fill-opacity="1" fill-rule="nonzero"/><path fill="#fbc092" d="M 483.390625 469.011719 L 463.46875 527.105469 L 307.671875 560.648438 L 224.523438 480.03125 C 224.523438 480.03125 262.050781 462.480469 270.097656 442.941406 C 272.9375 435.941406 272.9375 421.9375 271.753906 406.796875 C 269.578125 379.546875 263.566406 348.65625 263.566406 348.65625 L 445.4375 339.289062 C 445.4375 339.289062 443.828125 367.910156 443.355469 395.726562 C 442.976562 416.875 443.261719 437.597656 445.4375 444.976562 C 450.453125 462.007812 483.390625 469.011719 483.390625 469.011719 Z M 483.390625 469.011719 " fill-opacity="1" fill-rule="nonzero"/><path fill="#da8059" d="M 445.4375 339.289062 C 445.4375 339.289062 443.828125 367.910156 443.355469 395.726562 C 415.667969 421.984375 368.488281 464.609375 331.902344 459.214844 C 306.394531 455.480469 281.800781 435.941406 271.753906 406.796875 C 269.578125 379.546875 263.566406 348.65625 263.566406 348.65625 Z M 445.4375 339.289062 " fill-opacity="1" fill-rule="nonzero"/><path fill="#fbc092" d="M 231.652344 218.964844 C 231.652344 218.964844 242.585938 298.191406 241.796875 314.96875 C 241.023438 331.75 242.964844 343.84375 253.503906 352.441406 C 264.039062 361.019531 317.53125 409.808594 337.820312 412.933594 C 358.105469 416.054688 376.46875 414.886719 390.128906 406.6875 C 403.792969 398.488281 445.167969 364.535156 454.933594 356.351562 C 464.699219 348.167969 467.820312 339.601562 467.820312 316.753906 C 467.820312 293.902344 465.867188 236.925781 467.820312 204.15625 C 468.785156 188.070312 460.800781 90.597656 460.800781 90.597656 L 324.554688 53.523438 L 247.648438 88.644531 L 214.457031 120.261719 L 231.636719 218.996094 Z M 231.652344 218.964844 " fill-opacity="1" fill-rule="nonzero"/><path stroke-linecap="round" transform="matrix(1.577507, 0, 0, 1.576977, 15.251192, -19.474502)" fill="none" stroke-linejoin="round" d="M 206.6198 148.359132 C 206.6198 148.359132 210.789751 184.311038 209.660596 190.139536 " stroke="#da8059" stroke-width="6" stroke-opacity="1" stroke-miterlimit="4"/><path stroke-linecap="round" transform="matrix(1.577507, 0, 0, 1.576977, 15.251192, -19.474502)" fill="none" stroke-linejoin="round" d="M 145.910372 144.009432 C 145.910372 144.009432 167.240511 127.868974 177.999677 127.101088 C 188.758842 126.330726 192.029926 128.451081 192.029926 128.451081 " stroke="#7d2929" stroke-width="6" stroke-opacity="1" stroke-miterlimit="4"/><path stroke-linecap="round" transform="matrix(1.577507, 0, 0, 1.576977, 15.251192, -19.474502)" fill="none" stroke-linejoin="round" d="M 230.079487 128.441172 C 230.079487 128.441172 234.120674 127.140721 242.569529 126.930172 C 251.02086 126.719623 269.280489 139.7712 269.280489 139.7712 " stroke="#7d2929" stroke-width="6" stroke-opacity="1" stroke-miterlimit="4"/><path fill="#3d1119" d="M 308.164062 229.953125 C 308.265625 231.03125 308.300781 232.105469 308.265625 233.175781 C 308.234375 234.242188 308.136719 235.289062 307.972656 236.308594 C 307.804688 237.328125 307.578125 238.300781 307.285156 239.234375 C 306.996094 240.164062 306.644531 241.035156 306.238281 241.839844 C 305.832031 242.648438 305.375 243.378906 304.867188 244.03125 C 304.359375 244.679688 303.8125 245.242188 303.226562 245.714844 C 302.640625 246.183594 302.023438 246.558594 301.378906 246.832031 C 300.734375 247.105469 300.074219 247.273438 299.394531 247.335938 C 298.71875 247.398438 298.039062 247.359375 297.351562 247.210938 C 296.667969 247.0625 295.996094 246.8125 295.328125 246.460938 C 294.664062 246.105469 294.023438 245.65625 293.402344 245.113281 C 292.78125 244.566406 292.195312 243.9375 291.644531 243.21875 C 291.09375 242.503906 290.589844 241.714844 290.128906 240.855469 C 289.667969 239.996094 289.257812 239.078125 288.90625 238.109375 C 288.550781 237.136719 288.257812 236.132812 288.027344 235.085938 C 287.796875 234.042969 287.628906 232.980469 287.527344 231.90625 C 287.425781 230.828125 287.390625 229.753906 287.421875 228.683594 C 287.453125 227.617188 287.554688 226.570312 287.71875 225.550781 C 287.882812 224.53125 288.113281 223.558594 288.402344 222.625 C 288.695312 221.695312 289.042969 220.824219 289.453125 220.019531 C 289.859375 219.210938 290.316406 218.480469 290.824219 217.832031 C 291.328125 217.179688 291.875 216.617188 292.464844 216.144531 C 293.050781 215.675781 293.664062 215.300781 294.308594 215.027344 C 294.953125 214.757812 295.617188 214.585938 296.292969 214.523438 C 296.972656 214.460938 297.652344 214.5 298.335938 214.648438 C 299.019531 214.796875 299.695312 215.046875 300.359375 215.398438 C 301.023438 215.753906 301.667969 216.203125 302.289062 216.746094 C 302.90625 217.292969 303.492188 217.921875 304.042969 218.640625 C 304.59375 219.355469 305.101562 220.144531 305.5625 221.003906 C 306.023438 221.863281 306.429688 222.78125 306.785156 223.75 C 307.136719 224.722656 307.429688 225.730469 307.664062 226.773438 C 307.894531 227.816406 308.0625 228.878906 308.164062 229.953125 Z M 308.164062 229.953125 " fill-opacity="1" fill-rule="nonzero"/><path fill="#3d1119" d="M 403.34375 208.761719 C 404.011719 208.886719 404.65625 209.113281 405.273438 209.445312 C 405.890625 209.773438 406.46875 210.203125 407.011719 210.722656 C 407.554688 211.246094 408.046875 211.855469 408.492188 212.550781 C 408.9375 213.246094 409.328125 214.011719 409.660156 214.851562 C 409.992188 215.691406 410.261719 216.589844 410.46875 217.542969 C 410.675781 218.496094 410.8125 219.488281 410.886719 220.519531 C 410.960938 221.550781 410.964844 222.601562 410.898438 223.667969 C 410.835938 224.734375 410.703125 225.800781 410.503906 226.863281 C 410.304688 227.929688 410.042969 228.96875 409.71875 229.988281 C 409.390625 231.007812 409.007812 231.984375 408.570312 232.917969 C 408.128906 233.851562 407.640625 234.726562 407.105469 235.542969 C 406.570312 236.359375 405.992188 237.097656 405.378906 237.761719 C 404.765625 238.425781 404.125 239 403.460938 239.488281 C 402.792969 239.976562 402.113281 240.363281 401.417969 240.65625 C 400.722656 240.949219 400.03125 241.136719 399.335938 241.222656 C 398.640625 241.304688 397.957031 241.285156 397.289062 241.160156 C 396.621094 241.035156 395.976562 240.808594 395.359375 240.480469 C 394.742188 240.148438 394.164062 239.722656 393.621094 239.199219 C 393.078125 238.675781 392.585938 238.070312 392.140625 237.375 C 391.691406 236.679688 391.304688 235.910156 390.972656 235.070312 C 390.640625 234.230469 390.371094 233.332031 390.164062 232.378906 C 389.957031 231.425781 389.816406 230.433594 389.746094 229.402344 C 389.671875 228.371094 389.667969 227.324219 389.734375 226.257812 C 389.796875 225.1875 389.929688 224.125 390.128906 223.058594 C 390.328125 221.996094 390.589844 220.953125 390.914062 219.9375 C 391.238281 218.917969 391.621094 217.941406 392.0625 217.003906 C 392.5 216.070312 392.988281 215.195312 393.527344 214.378906 C 394.0625 213.566406 394.636719 212.824219 395.253906 212.160156 C 395.867188 211.5 396.503906 210.921875 397.171875 210.4375 C 397.839844 209.949219 398.519531 209.558594 399.214844 209.269531 C 399.90625 208.976562 400.601562 208.789062 401.296875 208.703125 C 401.992188 208.617188 402.671875 208.636719 403.34375 208.761719 Z M 403.34375 208.761719 " fill-opacity="1" fill-rule="nonzero"/><path stroke-linecap="round" transform="matrix(1.577507, 0, 0, 1.576977, 15.251192, -19.474502)" fill="none" stroke-linejoin="round" d="M 174.280398 217.109658 C 174.280398 217.109658 186.559961 230.470866 203.150619 230.470866 C 229.651101 230.470866 244.119641 217.109658 244.119641 217.109658 " stroke="#7d2929" stroke-width="3" stroke-opacity="1" stroke-miterlimit="4"/><path fill="#3d3b3c" d="M 360.820312 543.285156 C 360.820312 543.285156 316.964844 531.820312 285.855469 503.972656 C 254.75 476.121094 224.570312 444.109375 211.570312 405.125 C 198.574219 366.144531 206.699219 355.371094 222.265625 350.722656 L 203.148438 322.902344 C 203.148438 322.902344 160.523438 323.140625 154.511719 341.699219 C 148.503906 360.277344 182.65625 416.527344 181.835938 424.996094 C 181.015625 433.464844 168.949219 429.363281 153.804688 437.832031 C 138.675781 446.300781 139.496094 475.523438 155.601562 497.363281 C 171.722656 519.203125 190.007812 563.0625 220.722656 572.757812 C 251.433594 582.457031 345.25 560.664062 345.25 560.664062 C 345.25 560.664062 414.4375 585.691406 460.109375 571.152344 C 505.777344 556.609375 550.5 497.882812 562.363281 487.113281 C 574.210938 476.34375 585 471.484375 574.210938 456.410156 C 563.433594 441.332031 545.105469 427.867188 545.105469 427.867188 C 545.105469 427.867188 562.347656 359.742188 551.035156 343.972656 C 539.726562 328.203125 483.375 327.664062 483.375 327.664062 C 483.375 327.664062 492.304688 354.425781 490.695312 365.558594 C 489.085938 376.695312 498.488281 374.074219 500.398438 388.535156 C 502.714844 406.121094 383.550781 536.976562 360.820312 543.285156 Z M 360.820312 543.285156 " fill-opacity="1" fill-rule="nonzero"/><path fill="#56352c" d="M 233.261719 230.949219 C 233.261719 230.949219 237.160156 216.015625 238.453125 200.941406 C 239.746094 185.863281 231.007812 146.0625 238.453125 136.992188 C 242.539062 132.027344 261.46875 117.28125 281.800781 109.996094 C 298.523438 104.003906 316.808594 105.121094 323.273438 103.007812 C 332.410156 100.027344 368.707031 92.679688 394.925781 101.101562 C 421.144531 109.523438 439.175781 123.730469 442.425781 146.375 C 445.65625 169.039062 460.945312 208.667969 467.933594 207.625 C 474.921875 206.585938 475.648438 77.492188 475.648438 77.492188 L 390.144531 43.730469 L 278.253906 47.421875 L 197.609375 119.695312 Z M 233.261719 230.949219 " fill-opacity="1" fill-rule="nonzero"/><g fill="#3e3b3d" fill-opacity="1"><g transform="translate(351.7894, 685.085912)"><g><path d="M 0 -0.625 L 0.109375 -0.625 L 0.109375 0 L 0.21875 0 L 0.21875 -0.625 L 0.3125 -0.625 L 0.3125 -0.734375 L 0 -0.734375 Z M 0 -0.625 "/></g></g></g><g fill="#3e3b3d" fill-opacity="1"><g transform="translate(352.104954, 685.085912)"><g><path d="M 0.046875 -0.734375 L 0.046875 0 L 0.140625 0 L 0.140625 -0.734375 Z M 0.046875 -0.734375 "/></g></g></g><g fill="#3e3b3d" fill-opacity="1"><g transform="translate(352.292688, 685.085912)"><g><path d="M 0 -0.625 L 0.109375 -0.625 L 0.109375 0 L 0.21875 0 L 0.21875 -0.625 L 0.3125 -0.625 L 0.3125 -0.734375 L 0 -0.734375 Z M 0 -0.625 "/></g></g></g><g fill="#3e3b3d" fill-opacity="1"><g transform="translate(352.608242, 685.085912)"><g><path d="M 0.046875 -0.734375 L 0.046875 0 L 0.296875 0 L 0.296875 -0.09375 L 0.140625 -0.09375 L 0.140625 -0.734375 Z M 0.046875 -0.734375 "/></g></g></g><g fill="#3e3b3d" fill-opacity="1"><g transform="translate(352.902825, 685.085912)"><g><path d="M 0.046875 -0.734375 L 0.046875 0 L 0.28125 0 L 0.28125 -0.109375 L 0.140625 -0.109375 L 0.140625 -0.3125 L 0.25 -0.3125 L 0.25 -0.4375 L 0.140625 -0.4375 L 0.140625 -0.625 L 0.28125 -0.625 L 0.28125 -0.734375 Z M 0.046875 -0.734375 "/></g></g></g></svg>